<mxfile host="Electron" modified="2024-02-24T10:24:25.443Z" agent="Mozilla/5.0 (Windows NT 10.0; Win64; x64) AppleWebKit/537.36 (KHTML, like Gecko) draw.io/22.1.11 Chrome/114.0.5735.289 Electron/25.9.8 Safari/537.36" etag="F7SL7atjv3RS9daxti-C" version="22.1.11" type="device">
  <diagram name="페이지-1" id="j15THbkSNArLl6au_WYi">
    <mxGraphModel dx="1050" dy="-525" grid="1" gridSize="10" guides="1" tooltips="1" connect="1" arrows="1" fold="1" page="1" pageScale="1" pageWidth="827" pageHeight="1169" math="0" shadow="0">
      <root>
        <mxCell id="0" />
        <mxCell id="1" parent="0" />
        <mxCell id="b49IRltXHcFOzs0AzJ2W-34" value="10" style="rounded=0;whiteSpace=wrap;html=1;verticalAlign=bottom;" parent="1" vertex="1">
          <mxGeometry x="120" y="1200" width="40" height="240" as="geometry" />
        </mxCell>
        <mxCell id="b49IRltXHcFOzs0AzJ2W-35" value="8" style="rounded=0;whiteSpace=wrap;html=1;verticalAlign=bottom;" parent="1" vertex="1">
          <mxGeometry x="160" y="1240" width="40" height="200" as="geometry" />
        </mxCell>
        <mxCell id="i1YAFB7A06WpJg_481YL-1" value="10" style="rounded=0;whiteSpace=wrap;html=1;verticalAlign=bottom;" vertex="1" parent="1">
          <mxGeometry x="280" y="1200" width="40" height="240" as="geometry" />
        </mxCell>
        <mxCell id="i1YAFB7A06WpJg_481YL-2" value="8" style="rounded=0;whiteSpace=wrap;html=1;verticalAlign=bottom;" vertex="1" parent="1">
          <mxGeometry x="320" y="1240" width="40" height="200" as="geometry" />
        </mxCell>
        <mxCell id="i1YAFB7A06WpJg_481YL-3" value="6" style="rounded=0;whiteSpace=wrap;html=1;verticalAlign=bottom;" vertex="1" parent="1">
          <mxGeometry x="360" y="1280" width="40" height="160" as="geometry" />
        </mxCell>
        <mxCell id="i1YAFB7A06WpJg_481YL-4" value="" style="endArrow=classic;html=1;rounded=0;" edge="1" parent="1">
          <mxGeometry width="50" height="50" relative="1" as="geometry">
            <mxPoint x="210" y="1420" as="sourcePoint" />
            <mxPoint x="270" y="1420" as="targetPoint" />
          </mxGeometry>
        </mxCell>
      </root>
    </mxGraphModel>
  </diagram>
</mxfile>
